<svg xmlns="http://www.w3.org/2000/svg" viewBox="0 0 328.28 133.39"><defs><style>.cls-1{fill:#618ffc;}.cls-2{fill:#3854c6;}.cls-3{fill:#adc900;}.cls-4{fill:#febc00;}.cls-5{fill:#f2685e;}.cls-6{fill:#dd3343;}.cls-7{fill:#5c9236;}</style></defs><title>daum-logo</title><g id="Layer_2" data-name="Layer 2"><g id="Layer_1-2" data-name="Layer 1"><path class="cls-1" d="M87.1,52.92C81.62,34,63.53,20,42.05,20H0v89.85H42.05a47.75,47.75,0,0,0,28.36-9.28A41.7,41.7,0,0,1,69,89.82V87.68A42.94,42.94,0,0,1,87.1,52.92m-45,29.52H28.53V47.37H42.05c10.07,0,18.27,7.87,18.27,17.54s-8.2,17.53-18.27,17.53"/><path class="cls-2" d="M88.84,64.91a43.06,43.06,0,0,0-1.74-12A43,43,0,0,0,69,87.68v2.14a41.92,41.92,0,0,0,1.45,10.74A44.23,44.23,0,0,0,88.84,64.91"/><path class="cls-3" d="M129.81,46.73l-.84-.29-.24-.08-.61-.2a46.91,46.91,0,0,0-13.76-2.06A46.36,46.36,0,0,0,87.1,52.92a43.07,43.07,0,0,1,1.74,12,44.23,44.23,0,0,1-18.42,35.64c5,18.84,22.78,32.84,43.94,32.84a46.32,46.32,0,0,0,26.56-8.32c4.28,3.71,10.32,6.11,18.84,7.34V87.68c0-.56-.07-1.09-.09-1.64,0-.06,0-.12,0-.18V85.8c0-.09,0-.18,0-.26C142.49,80.23,130,64.89,129.81,46.73m1.42,43.09c0,8.92-7.57,16.18-16.87,16.18S97.49,98.74,97.49,89.82V87.68c0-8.92,7.57-16.19,16.87-16.19s16.87,7.27,16.87,16.19Z"/><path class="cls-4" d="M215.13,29.16l0,0,0,0,.55-.4V0H187.25V46.31c0,7.66-6.49,13.87-14.46,13.87S158.33,54,158.33,46.31V0H129.8V46.44c0,.1,0,.19,0,.29,16.77,5.85,28.92,20.92,29.84,38.81l.85.26.25.07c.2.06.39.12.61.17a44.57,44.57,0,0,0,11.43,1.53A43.84,43.84,0,0,0,198.89,79c.29-.21.56-.43.85-.65V59a37.1,37.1,0,0,1,15.4-29.85"/><path class="cls-5" d="M289,21.34A40.09,40.09,0,0,0,264,30a40.38,40.38,0,0,0-47.45-1.89l-.79.57V46.31a40.5,40.5,0,0,1-15.45,31.6h0l-.56.44v31.48h28.44V59a10.82,10.82,0,0,1,21.62,0v50.83h28.44V59a10.82,10.82,0,0,1,21.62,0v50.83h28.43V59c0-20.77-17.6-37.67-39.24-37.67"/><path class="cls-6" d="M200.32,77.9a40.51,40.51,0,0,0,15.45-31.59V28.71l-.56.4,0,0s0,0,0,0A37.09,37.09,0,0,0,199.73,59V78.36l.56-.44h0"/><path class="cls-7" d="M129.81,46.73c.2,18.15,12.69,33.5,29.83,38.81-.91-17.89-13.06-33-29.83-38.81"/></g></g></svg>