<svg xmlns="http://www.w3.org/2000/svg" viewBox="0 0 171.5 44.02"><defs><style>.cls-1{fill:#ee2a24;}.cls-2{fill:#d62c20;}.cls-3{fill:#ef4629;}.cls-4{fill:#ba131a;}.cls-5{fill:#9e0b0f;}</style></defs><title>nate-logo</title><g id="Layer_2" data-name="Layer 2"><g id="nate"><path class="cls-1" d="M89.63,5.31h-21a3.1,3.1,0,0,0-3.13,3,3.1,3.1,0,0,0,3.13,3h7.56V35.55a3,3,0,1,0,5.91,0V11.23h7.48a3.09,3.09,0,0,0,3.11-3A3.09,3.09,0,0,0,89.63,5.31Z"/><path class="cls-1" d="M22.16,37.26a3.85,3.85,0,0,0,3.11,1.64A3.38,3.38,0,0,0,29,35.2V8.32a3.11,3.11,0,0,0-3-3.13,3.11,3.11,0,0,0-3,3.13V28.23L6.82,6.74A3.84,3.84,0,0,0,3.71,5.1,3.38,3.38,0,0,0,0,8.8V35.69a3.12,3.12,0,0,0,3,3.14,3.12,3.12,0,0,0,3-3.14V15.77Z"/><path class="cls-1" d="M116.23,32.48H103.18l0-7.51h11.47a3,3,0,1,0,0-5.92H103.15V11.52h13.05a3.11,3.11,0,0,0,3.12-3,3.11,3.11,0,0,0-3.12-3H101.86A4.63,4.63,0,0,0,97.24,10h0V34h0a4.57,4.57,0,0,0,4.56,4.55h14.43a3,3,0,1,0,0-6.09Z"/><path class="cls-1" d="M67.82,34.53,54.12,6.79A3.59,3.59,0,0,0,51,5.06a3.71,3.71,0,0,0-3.33,2S34.83,33.52,34.8,33.6a3.63,3.63,0,0,0-.36,1.57,3.69,3.69,0,0,0,2.74,3.54,3,3,0,0,0,.92.15H52.37a3.23,3.23,0,0,0,3.25-3,3.22,3.22,0,0,0-3.25-3H41.68L51,13.77,62.5,37.11a3.27,3.27,0,0,0,4.14,1.57A3.13,3.13,0,0,0,67.82,34.53Z"/><polygon class="cls-2" points="151.93 0.44 132.75 14.82 132.75 29.2 151.93 43.58 171.11 29.2 171.11 14.82 151.93 0.44"/><polygon class="cls-3" points="151.93 0 161.72 7.34 151.93 14.67 151.93 0"/><polygon class="cls-4" points="142.15 7.34 151.93 14.67 142.15 22.01 142.15 7.34"/><polygon class="cls-4" points="161.72 7.34 171.5 14.67 161.72 22.01 161.72 7.34"/><polygon class="cls-4" points="161.72 22.01 171.5 29.34 161.72 36.68 161.72 22.01"/><polygon class="cls-4" points="142.15 22.01 151.93 29.34 142.15 36.68 142.15 22.01"/><polygon class="cls-2" points="161.72 7.34 151.93 14.67 161.72 22.01 161.72 7.34"/><polygon class="cls-5" points="171.5 14.67 161.72 22.01 171.5 29.34 171.5 14.67"/><polygon class="cls-2" points="161.72 22.01 151.93 29.34 161.72 36.68 161.72 22.01"/><polygon class="cls-5" points="142.15 22.01 132.36 29.34 142.15 36.68 142.15 22.01"/><polygon class="cls-5" points="142.15 7.34 132.36 14.67 142.15 22.01 142.15 7.34"/><polygon class="cls-2" points="151.93 0 142.15 7.34 151.93 14.67 151.93 0"/><polygon class="cls-2" points="151.93 14.67 142.15 22.01 151.93 29.34 151.93 14.67"/><polygon class="cls-2" points="151.93 29.34 142.15 36.68 151.93 44.02 151.93 29.34"/><polygon class="cls-3" points="151.93 14.67 161.72 22.01 151.93 29.34 151.93 14.67"/><polygon class="cls-3" points="132.36 14.67 142.15 22.01 132.36 29.34 132.36 14.67"/><polygon class="cls-3" points="151.93 29.34 161.72 36.68 151.93 44.02 151.93 29.34"/></g></g></svg>