<svg xmlns="http://www.w3.org/2000/svg" viewBox="0 0 293.95 86.29"><defs><style>.cls-1{fill:#1b52ed;}</style></defs><title>zum-logo_1</title><g id="Layer_2" data-name="Layer 2"><g id="레이어_1" data-name="레이어 1"><path class="cls-1" d="M68.7,61.31H36.76L73.35,20.76a12.37,12.37,0,0,0,3-8.29s0-.09,0-.23A11.4,11.4,0,0,0,73.47,5l0,0,0,0a11.44,11.44,0,0,0-8.53-3.84H13.25A11.24,11.24,0,0,0,3.09,7.56L3,7.7l0,.1a11.41,11.41,0,0,0-1.06,4.82s0,0,0,.06,0,0,0,.06a11.25,11.25,0,0,0,8.52,11l.09,0,.18,0a11.47,11.47,0,0,0,2.66.29H39C37.95,25.29,4.19,62.91,2.69,64.57A10.63,10.63,0,0,0,0,71.84c0,.11,0,.22,0,.33s0,.39,0,.59H0A11.28,11.28,0,0,0,11.36,84.22H68.7a11.45,11.45,0,1,0,0-22.91Z"/><path class="cls-1" d="M267.22,0c-9.43,0-16.5,5.8-21,14.2-3.27-6.13-7.32-10.95-13.59-13A26.27,26.27,0,0,0,224.83,0c-7.48,0-16.09,4.59-18.68,12.58h0c-1.46-6.08-5.76-11.45-13.36-11.43h-.19a13.36,13.36,0,0,0-13.17,13.26h0V71.11a13.1,13.1,0,0,0,8.64,12.25l.16.06.12,0a13.42,13.42,0,0,0,6.49.61,13.16,13.16,0,0,0,11.32-13v-.26h0V33.45c0-4.9,3.69-9.39,8.59-9.39s8.59,4.5,8.59,9.39c0,0,0,0,0,0h0V70.8s0,0,0,.05,0,0,0,.05v.15s0,0,0,.05a13.15,13.15,0,0,0,10.29,12.75,13.33,13.33,0,0,0,6.14,0A13.14,13.14,0,0,0,250,71.11v0h0V33.15h0s0,0,0,0a8.78,8.78,0,0,1,8.58-9c4.9,0,8.59,2.39,8.59,7.29,0,0,0,1.92,0,1.93V70.64c0,.06,0,.11,0,.17v.08c0,.07,0,.14,0,.22a13.14,13.14,0,0,0,10.3,12.75,13.32,13.32,0,0,0,6.12,0,13.14,13.14,0,0,0,10.31-12.75V29.8C292.77-1.9,267.22,0,267.22,0Z"/><path class="cls-1" d="M154.6,1.14a13.36,13.36,0,0,0-13.36,13.36V48.05c0,7.46-7.27,13.41-14.31,13.41-8.16,0-14.32-7-14.31-13.41V14.7s0-.07,0-.1q0-.35,0-.69a13.36,13.36,0,0,0-26.71.6h0s0,0,0,.06h0v-1.1h0V42.39C85.89,62,97,78.33,113.52,84.06a59.37,59.37,0,0,0,13.41,2.23A41.1,41.1,0,0,0,152.77,77c.27-.22,1.37-1.19,1.39-1.2C163.25,67.63,168,56.13,168,42.39V14.51A13.36,13.36,0,0,0,154.6,1.14Z"/></g></g></svg>